<svg width="28" height="28" viewBox="0 0 28 28" fill="none" xmlns="http://www.w3.org/2000/svg">
<rect width="28" height="28" rx="9" fill="#D1E9FF"/>
<path d="M17.4333 10.625C18.2864 10.625 19.1813 11.239 19.4974 12.731L20.0164 16.9124C20.3982 19.6386 18.8651 20.75 16.807 20.75H11.2112C9.14715 20.75 7.56628 19.9825 7.9958 16.9124L8.52077 12.731C8.78922 11.196 9.71388 10.625 10.5789 10.625H17.4333ZM12.0405 12.8723C11.711 12.8723 11.4439 13.1472 11.4439 13.4863C11.4439 13.8254 11.711 14.1003 12.0405 14.1003C12.3699 14.1003 12.637 13.8254 12.637 13.4863L12.6324 13.4093C12.5956 13.1065 12.3446 12.8723 12.0405 12.8723ZM15.9479 12.8723C15.6184 12.8723 15.3514 13.1472 15.3514 13.4863C15.3514 13.8254 15.6184 14.1003 15.9479 14.1003C16.2774 14.1003 16.5445 13.8254 16.5445 13.4863C16.5445 13.1472 16.2774 12.8723 15.9479 12.8723Z" fill="#0E5DF7"/>
<path opacity="0.4" d="M17.3573 10.4727C17.3594 10.525 17.3494 10.5772 17.3279 10.625H16.3579C16.3391 10.5764 16.3291 10.5248 16.3285 10.4727C16.3285 9.17836 15.2756 8.12911 13.9769 8.12911C12.6781 8.12911 11.6252 9.17836 11.6252 10.4727C11.6341 10.5231 11.6341 10.5746 11.6252 10.625H10.6316C10.6227 10.5746 10.6227 10.5231 10.6316 10.4727C10.7071 8.67149 12.1943 7.25 14.0033 7.25C15.8123 7.25 17.2995 8.67149 17.375 10.4727H17.3573Z" fill="#0E5DF7"/>
</svg>
