<svg width="33" height="32" viewBox="0 0 33 32" fill="none" xmlns="http://www.w3.org/2000/svg">
<path d="M25.4841 4H6.70634C5.23095 4 4.0238 5.2 4.0238 6.66667V25.3333C4.0238 26.8 5.23095 28 6.70634 28H25.4841C26.9595 28 28.1667 26.8 28.1667 25.3333V6.66667C28.1667 5.2 26.9595 4 25.4841 4ZM17.4365 9.46667L18.9119 8L20.7897 9.86667L22.6674 8L24.1428 9.46667L22.2651 11.3333L24.1428 13.2L22.6674 14.6667L20.7897 12.8L18.9119 14.6667L17.4365 13.2L19.3143 11.3333L17.4365 9.46667ZM8.31587 10.2667H15.0222V12.2667H8.31587V10.2667V10.2667ZM15.4246 21.3333H12.7421V24H10.7302V21.3333H8.04761V19.3333H10.7302V16.6667H12.7421V19.3333H15.4246V21.3333ZM24.1428 22.9333H17.4365V20.9333H24.1428V22.9333ZM24.1428 19.7333H17.4365V17.7333H24.1428V19.7333Z" fill="url(#paint0_linear)"/>
<defs>
<linearGradient id="paint0_linear" x1="6.10508" y1="6.3826" x2="31.0804" y2="39.4056" gradientUnits="userSpaceOnUse">
<stop stop-color="#0E5DF7"/>
<stop offset="1" stop-color="#0052B1"/>
</linearGradient>
</defs>
</svg>
