<svg width="28" height="28" viewBox="0 0 28 28" fill="none" xmlns="http://www.w3.org/2000/svg">
<rect width="28" height="28" rx="9" fill="#D1E9FF"/>
<path d="M17.3853 7.25C19.97 7.25 21.4973 8.73397 21.4973 11.2534V11.2813H18.3213C16.8433 11.2839 15.646 12.4514 15.6433 13.8924C15.6413 15.3367 16.84 16.5094 18.3213 16.5113H21.5V16.7408C21.5 19.2602 19.9727 20.75 17.388 20.75H10.6127C8.02733 20.75 6.5 19.2602 6.5 16.7408V11.2534C6.5 8.73397 8.02733 7.25 10.6127 7.25H17.3853ZM14.2873 10.1562H10.0547C9.74 10.1575 9.48467 10.4064 9.48333 10.7139C9.482 11.0226 9.738 11.2742 10.0547 11.2755H14.2927C14.6093 11.2742 14.8653 11.0226 14.864 10.7132C14.8627 10.4045 14.604 10.1549 14.2873 10.1562Z" fill="#0E5DF7"/>
<path opacity="0.4" d="M17.0281 14.2225C17.1849 14.9359 17.8104 15.4378 18.5244 15.4247H20.9619C21.259 15.4247 21.5 15.1787 21.5 14.8745V12.9759C21.4994 12.6724 21.259 12.4256 20.9619 12.425H18.4671C17.6548 12.4276 16.9987 13.1018 17 13.9327C17 14.0299 17.0096 14.1272 17.0281 14.2225Z" fill="#0E5DF7"/>
<path d="M18.5 14.675C18.9142 14.675 19.25 14.3392 19.25 13.925C19.25 13.5108 18.9142 13.175 18.5 13.175C18.0858 13.175 17.75 13.5108 17.75 13.925C17.75 14.3392 18.0858 14.675 18.5 14.675Z" fill="#0E5DF7"/>
</svg>
